Coordinates
version=1
nRows=16
nColumns=33
inDegrees=yes

Units are S.I. units (second, meters, Newtons, ...)
Angles are in degrees.

endheader
time	ground_thorax_rot_x	ground_thorax_rot_y	ground_thorax_rot_z	ground_thorax_tx	ground_thorax_ty	ground_thorax_tz	clav_prot_r	clav_elev_r	scapula_abduction_r	scapula_elevation_r	scapula_upward_rot_r	scapula_winging_r	shoulder_elv_r	plane_of_elev_r	axial_rot_r	elbow_flexion_r	pro_sup_r	wrist_flex_r	wrist_dev_r	clav_prot_l	clav_elev_l	scapula_abduction_l	scapula_elevation_l	scapula_upward_rot_l	scapula_winging_l	shoulder_elv_l	plane_of_elev_l	axial_rot_l	elbow_flexion_l	pro_sup_l	wrist_flex_l	wrist_dev_l
     11.28000000	     28.52667162	     32.32262597	     42.51823266	     53.75692132	    757.74069749	    -32.94342268	     12.20923347	     36.58073920	     27.66157756	     45.00000000	    -45.00000000	  -3317.66417837	  -1911.24770301	    159.32409452	     14.87387704	   2161.21224384	   -195.02939054	     10.67451277	     13.48208035	    -12.96516692	    -45.00000000	    -36.97051566	     45.00000000	    -45.00000000	  -3865.00050530	  -1355.77818802	     14.99891645	   -179.99999979	    370.42031085	    192.08427793	     12.30657608	    -10.77157417
     11.29000000	     28.64310633	     32.36002161	     42.42079376	     53.10017553	    757.38129742	    -32.85940901	     12.90446284	     36.63944651	     27.78518365	     45.00000000	    -44.73097909	  -3317.80801188	  -1911.23023999	    159.59027059	     15.89266685	   2160.98633895	   -194.77641593	     10.39119936	     13.26464596	    -13.68176161	    -45.00000000	    -36.42560329	     45.00000000	    -45.00000000	  -3865.12582303	  -1355.49559861	     14.89444817	   -179.99999979	    370.49467070	    193.53718959	     12.07555870	    -10.92368863
     11.30000000	     28.42148128	     32.56418643	     42.69714698	     52.33588427	    757.07696952	    -32.76182272	     12.65560251	     36.53768286	     27.64995691	     45.00000000	    -45.00000000	  -3317.97191944	  -1911.15216690	    159.46810584	     16.04474142	   2161.12129238	   -195.01947174	     10.57063182	     13.38533248	    -13.46132792	    -45.00000000	    -36.31487062	     45.00000000	    -45.00000000	  -3864.75891881	  -1355.39883560	     15.02460594	   -179.99999979	    370.68138041	    194.47724621	     11.89903976	    -11.06490556
     11.31000000	     28.36972114	     32.64467887	     42.75088044	     51.46787017	    756.82117720	    -32.65472019	     12.77323255	     36.49649612	     27.60304705	     45.00000000	    -45.00000000	  -3318.08492577	  -1911.08175199	    159.54612141	     16.46272930	   2161.03796197	   -195.25950954	     10.57858407	     13.41291323	    -13.56501447	    -45.00000000	    -36.09344767	     45.00000000	    -45.00000000	  -3864.56411268	  -1355.28091503	     15.04103308	   -179.99999979	    370.68821927	    195.08782832	     11.73517279	    -11.16493729
     11.32000000	     28.34947158	     32.70947857	     42.67598666	     50.48497528	    756.60886438	    -32.53949604	     12.69186017	     36.53915962	     27.50043952	     45.00000000	    -45.00000000	  -3318.15202040	  -1911.02270223	    159.52186909	     16.87706710	   2161.15798539	   -195.54305959	     10.58277616	     13.49375408	    -13.57245354	    -45.00000000	    -36.04888324	     45.00000000	    -45.00000000	  -3864.43819461	  -1355.21097093	     15.12457547	   -179.99999979	    370.94428191	    195.50667658	     11.57137597	    -11.18216404
     11.33000000	     28.21817441	     32.83085542	     42.90629041	     49.39885399	    756.44262162	    -32.42055683	     12.79622346	     36.36934753	     27.47221877	     45.00000000	    -45.00000000	  -3318.37100729	  -1911.00644087	    159.56316467	     16.97473709	   2161.13189599	   -195.88706694	     10.61189427	     13.50854314	    -13.53923264	    -45.00000000	    -35.75792276	     45.00000000	    -45.00000000	  -3864.10239858	  -1355.03325884	     15.14697366	   -179.99999979	    370.92052568	    195.79011971	     11.42125806	    -11.24778049
     11.34000000	     28.25492813	     32.80630191	     42.64603246	     48.20361155	    756.32096607	    -32.29977712	     12.67480179	     36.50968873	     27.46835760	     45.00000000	    -45.00000000	  -3318.46108597	  -1910.96687783	    159.63971205	     17.42488011	   2160.99321437	   -196.15016005	     10.68195297	     13.55323124	    -13.53673739	    -45.00000000	    -35.90730756	     45.00000000	    -45.00000000	  -3864.04213960	  -1354.98016652	     15.13648537	   -179.99999979	    370.87125858	    196.01664772	     11.29173563	    -11.35057688
     11.35000000	     28.20252935	     32.87220940	     42.67898708	     46.90353686	    756.24476449	    -32.17941645	     12.73015774	     36.44890664	     27.38766589	     45.00000000	    -45.00000000	  -3318.60370468	  -1910.90560354	    159.61005661	     17.56935693	   2161.04442003	   -196.43025844	     10.66637871	     13.60739117	    -13.53819866	    -45.00000000	    -35.73637998	     45.00000000	    -45.00000000	  -3863.81533350	  -1354.84609818	     15.21994174	   -179.99999979	    371.00017479	    196.22833139	     11.12511268	    -11.36504425
     11.36000000	     28.18507301	     32.89199109	     42.59794119	     45.50004279	    756.21424159	    -32.06080845	     12.71993945	     36.42943367	     27.37803365	     45.00000000	    -45.00000000	  -3318.73022125	  -1910.88479389	    159.66485813	     17.80237568	   2161.00817297	   -196.65746332	     10.71287265	     13.60522726	    -13.46988482	    -45.00000000	    -35.75801222	     45.00000000	    -45.00000000	  -3863.66878760	  -1354.74838944	     15.19710291	   -179.99999979	    370.99465708	    196.44516675	     11.01955406	    -11.44208771
     11.37000000	     28.18675476	     32.88369756	     42.47084138	     43.99740771	    756.22903175	    -31.94499832	     12.70137409	     36.45619421	     27.35315978	     45.00000000	    -45.00000000	  -3318.85659944	  -1910.84384505	    159.66091766	     17.98481395	   2160.98617050	   -196.83272648	     10.74130660	     13.64034091	    -13.45958251	    -45.00000000	    -35.74544933	     45.00000000	    -45.00000000	  -3863.51309472	  -1354.63488071	     15.25649979	   -179.99999979	    371.04641504	    196.68485860	     10.87879575	    -11.50539675
     11.38000000	     28.18235641	     32.89045131	     42.34423165	     42.38907020	    756.28830398	    -31.83209419	     12.70475650	     36.44524381	     27.31796077	     45.00000000	    -45.00000000	  -3318.99388164	  -1910.81286408	    159.68666471	     18.14290137	   2160.94056208	   -196.95821436	     10.79234392	     13.65372602	    -13.40107431	    -45.00000000	    -35.74076982	     45.00000000	    -45.00000000	  -3863.37302467	  -1354.52591343	     15.27744005	   -179.99999979	    371.03880808	    196.95323829	     10.76797756	    -11.58828080
     11.39000000	     28.16585929	     32.90352227	     42.28030036	     40.68425742	    756.39065898	    -31.72327099	     12.72049854	     36.40554157	     27.29214653	     45.00000000	    -45.00000000	  -3319.14828191	  -1910.77975275	    159.68688065	     18.23418419	   2160.96133374	   -197.03930590	     10.83055061	     13.65891670	    -13.33823670	    -45.00000000	    -35.71164526	     45.00000000	    -45.00000000	  -3863.17862477	  -1354.38472405	     15.31677358	   -179.99999979	    371.07008259	    197.25660438	     10.65376290	    -11.66126092
     11.40000000	     28.19132174	     32.86833152	     42.09298052	     38.88395479	    756.53433820	    -31.61896329	     12.68115756	     36.43615663	     27.27701039	     45.00000000	    -45.00000000	  -3319.29484128	  -1910.75488386	    159.67868055	     18.36119728	   2160.92424829	   -197.04157708	     10.89561430	     13.67685419	    -13.28144595	    -45.00000000	    -35.76311261	     45.00000000	    -45.00000000	  -3863.04755743	  -1354.26140865	     15.34890003	   -179.99999979	    371.07747505	    197.57936743	     10.55669700	    -11.74630325
     11.41000000	     28.12049695	     32.94068280	     42.14990932	     36.99119516	    756.71741724	    -31.51948198	     12.76927555	     36.27841200	     27.20553573	     45.00000000	    -45.00000000	  -3319.45119753	  -1910.70215912	    159.66909408	     18.36114347	   2161.03485210	   -197.01061546	     10.92889096	     13.64415085	    -13.14835658	    -45.00000000	    -35.64975829	     45.00000000	    -45.00000000	  -3862.81307370	  -1354.09822109	     15.37177523	   -179.99999979	    371.11798964	    197.93304447	     10.47162769	    -11.79983744
     11.42000000	     28.18684265	     32.84527468	     41.83828767	     35.00427873	    756.93871287	    -31.42453360	     12.66208745	     36.39518810	     27.22004438	     45.00000000	    -45.00000000	  -3319.60890597	  -1910.70179316	    159.67226371	     18.52541511	   2160.90065643	   -196.88457135	     11.04611862	     13.67269596	    -13.11145319	    -45.00000000	    -35.77819461	     45.00000000	    -45.00000000	  -3862.73143245	  -1353.98492516	     15.39725587	   -179.99999979	    371.09665003	    198.26548571	     10.39769516	    -11.89532314
     11.43000000	     28.23179827	     32.81886930	     41.64502558	     32.92844423	    757.19663029	    -31.33389745	     12.61140047	     36.45056016	     27.21034069	     45.00000000	    -45.00000000	  -3319.81984946	  -1910.65279971	    159.60339879	     18.60639472	   2160.93586759	   -196.72473279	     11.09209132	     13.73175104	    -13.09457907	    -45.00000000	    -35.82103844	     45.00000000	    -45.00000000	  -3862.54161660	  -1353.86252770	     15.49890184	   -179.99999979	    371.14583535	    198.57351109	     10.32701461	    -11.95003951
